<?xml version='1.0' encoding='utf-8'?>
<svg xmlns="http://www.w3.org/2000/svg" version="1.1" id="Layer_1" x="0px" y="0px" width="3000px" height="2178.007px" viewBox="0 0 3000 2178.007" enable-background="new 0 0 3000 2178.007"> <g> <path fill="#E0CFE0" d="M2004.262,172.016c-255.176-39.624-498.49,5.195-683.418,109.241 c-38.826-10.146-78.766-18.511-119.678-24.864c-498.551-77.412-951.941,167.38-1012.682,546.758 c-47.803,298.541,161.832,591.43,496.262,740.423c130.342,214.507,390.178,383.484,708.65,432.935 c479.762,74.495,917.645-149.419,1004.096-504.486c213.527-95.966,366.049-264.021,399.498-472.914 C2857.73,619.728,2502.822,249.425,2004.262,172.016z"/> <rect x="422.125" y="1249.144" fill="#B8BABC" width="70.4" height="694.42"/> <rect x="492.525" y="1302.808" fill="#A3A5A8" width="1645.248" height="79.143"/> <rect x="2135.131" y="1249.144" fill="#B8BABC" width="70.402" height="694.42"/> <g> <rect x="1394.613" y="1229.425" fill="#758698" width="225.514" height="23.145"/> <path fill="#A2ACBE" d="M1964.416,1109.295c0,24.676-20.008,44.683-44.684,44.683h-845.244c-24.682,0-44.688-20.007-44.688-44.683 V547.037c0-24.676,20.006-44.682,44.688-44.682h845.244c24.676,0,44.684,20.006,44.684,44.682V1109.295z"/> <g> <path fill="#6E8CA4" d="M1050.23,1019.333v77.672c0,23.603,19.133,42.73,42.729,42.73h808.299 c23.596,0,42.729-19.128,42.729-42.73v-77.672H1050.23z"/> <path fill="#E1E0EB" d="M1943.986,559.326c0-23.596-19.133-42.729-42.729-42.729h-808.299c-23.596,0-42.729,19.133-42.729,42.729 v460.007h893.756V559.326z"/> </g> <rect x="1098.473" y="1046.936" fill="#FFFFFF" width="16.914" height="65.873"/> <rect x="1124.289" y="1046.936" fill="#FFFFFF" width="16.914" height="65.873"/> <g> <rect x="1213.781" y="1046.936" fill="#FFFFFF" width="8.457" height="65.873"/> <polygon fill="#FFFFFF" points="1178.674,1048.205 1178.674,1110.861 1218.01,1079.533 "/> </g> <rect x="1050.23" y="1004.205" fill="#FFFFFF" width="893.756" height="15.128"/> <rect x="1050.23" y="1004.205" fill="#F26A54" width="482.656" height="15.128"/> <path fill="#F26A54" d="M1548.914,1011.772c0,10.571-8.566,19.14-19.139,19.14c-10.574,0-19.141-8.568-19.141-19.14 c0-10.57,8.566-19.14,19.141-19.14C1540.348,992.632,1548.914,1001.202,1548.914,1011.772z"/> <g> <polygon fill="#627080" points="1585.115,1153.978 1429.625,1153.978 1429.625,1225.815 1585.115,1166.676 "/> <polygon fill="#758698" points="1429.625,1225.815 1429.625,1229.425 1585.115,1229.425 1585.115,1166.676 "/> </g> <g> <path fill="#316782" d="M1901.258,1142.088h-808.299c-24.859,0-45.082-20.225-45.082-45.084V559.326 c0-24.856,20.223-45.081,45.082-45.081h808.299c24.859,0,45.082,20.225,45.082,45.081v537.679 C1946.34,1121.864,1926.117,1142.088,1901.258,1142.088z M1092.959,518.951c-22.264,0-40.375,18.112-40.375,40.375v537.679 c0,22.265,18.111,40.377,40.375,40.377h808.299c22.262,0,40.375-18.112,40.375-40.377V559.326 c0-22.263-18.113-40.375-40.375-40.375H1092.959z"/> </g> </g> <g> <path fill="#FFFFFF" d="M1910.313,1103.944h-185.117v-59.361h185.117V1103.944z M1729.902,1099.238h175.703v-49.949h-175.703 V1099.238z"/> </g> <g> <g> <g> <path fill="#60938F" d="M1561.617,766.739c-0.143-0.016-0.281-0.048-0.418-0.064c-0.652-0.078-1.32-0.124-1.996-0.124h-17.869 h-9.352c0,0.017,0,0.028,0,0.046c0,10.364-6.623,18.898-15.148,20.063v77.957c0,26.305-9.992,48.642-23.945,57.121 c-1.736,4.448-3.797,8.334-6.09,11.542h28.992c8.676,0,16.412-7.045,21.463-18.029c13.957-7.19,23.945-26.131,23.945-48.441 v-66.106c8.529-0.985,15.148-8.224,15.148-17.014C1576.348,775.043,1569.939,767.916,1561.617,766.739z"/> </g> <g> <path fill="#74AFAB" d="M1516.834,864.617V786.66c8.525-1.165,15.148-9.699,15.148-20.063c0-0.018,0-0.029,0-0.046h-99.094 h-17.869c-0.676,0-1.338,0.046-1.99,0.124c-1.23,0.143-2.418,0.421-3.553,0.812c-6.742,2.308-11.596,8.682-11.596,16.203 c0,8.79,6.623,16.028,15.148,17.014v66.106c0,22.309,9.992,41.251,23.945,48.441c5.051,10.984,12.781,18.029,21.459,18.029 h28.365c2.293-3.208,4.354-7.094,6.09-11.542C1506.842,913.258,1516.834,890.921,1516.834,864.617z"/> </g> </g> <g> <path fill="#FFCA43" d="M1653.766,497.092c-13.729-24.97-36.666-46.854-65.533-62.67c-14.432-7.912-30.352-13.919-47.338-17.959 c-16.992-4.04-35.055-6.095-53.791-5.893c-18.725,0.205-36.783,2.647-53.773,7.005c-16.992,4.353-32.912,10.598-47.338,18.591 c-28.863,15.982-51.801,37.801-65.529,62.721c-9.156,16.604-14.211,34.814-14.211,53.725c0,14.189,2.84,28.067,8.135,41.774 c5.275,13.707,13.012,27.732,22.754,41.75c6.494,9.348,13.904,19.291,22.084,30.542c4.09,6.759,8.375,14.243,12.842,22.354 c4.471,8.119,9.117,17.044,13.93,26.797c4.803,10.511,9.785,21.383,14.91,33.057c2.813,6.216,5.666,12.466,8.57,18.6 c1.135-0.391,2.322-0.669,3.553-0.812c0.652-0.078,1.314-0.124,1.99-0.124h17.869h108.445h17.869 c0.676,0,1.344,0.046,1.996,0.124c0.137,0.017,0.275,0.049,0.418,0.064c3.975-8.539,7.877-17.056,11.701-25.077 c5.133-10.537,10.098-20.377,14.914-29.665c4.811-9.268,9.457-17.908,13.93-25.967c4.473-8.063,8.746-15.563,12.832-22.419 c8.189-12.021,15.584-22.312,22.084-31.905c6.508-9.164,12.105-18.287,16.688-26.98c9.15-17.366,14.215-35.205,14.215-53.979 S1662.916,513.734,1653.766,497.092z"/> </g> <g> <g> <g> <g> <rect x="1509.664" y="582.459" fill="#E78529" width="6.053" height="86.735"/> </g> <g> <rect x="1455.363" y="582.459" fill="#E78529" width="6.049" height="86.735"/> </g> </g> <g> <g> <rect x="1489.988" y="629.454" fill="#E78529" width="6.049" height="34.465"/> </g> <g> <rect x="1475.043" y="629.454" fill="#E78529" width="6.043" height="34.465"/> </g> </g> <g> <g> <path fill="#E78529" d="M1485.535,709.834c-20.264,0-40.779-5.329-40.779-15.519c0-10.183,20.516-15.514,40.779-15.514 c20.268,0,40.785,5.331,40.785,15.514C1526.32,704.505,1505.803,709.834,1485.535,709.834z M1485.535,684.851 c-22.469,0-34.73,6.252-34.73,9.465c0,3.215,12.262,9.468,34.73,9.468c22.475,0,34.732-6.253,34.732-9.468 C1520.268,691.103,1508.01,684.851,1485.535,684.851z"/> </g> <g> <path fill="#E78529" d="M1485.535,693.383c-20.264,0-40.779-5.332-40.779-15.519c0-10.185,20.516-15.514,40.779-15.514 c20.268,0,40.785,5.329,40.785,15.514C1526.32,688.051,1505.803,693.383,1485.535,693.383z M1485.535,668.402 c-22.469,0-34.73,6.253-34.73,9.463c0,3.217,12.262,9.47,34.73,9.47c22.475,0,34.732-6.253,34.732-9.47 C1520.268,674.655,1508.01,668.402,1485.535,668.402z"/> </g> </g> <g> <path fill="#E78529" d="M1485.963,635.637c-9.813,0-19.717-2.634-19.717-8.517c0-5.878,9.904-8.509,19.717-8.509 s19.713,2.631,19.713,8.509C1505.676,633.003,1495.775,635.637,1485.963,635.637z M1472.758,627.124 c1.646,1.041,6.238,2.466,13.205,2.466c6.963,0,11.559-1.425,13.199-2.466c-1.641-1.037-6.236-2.464-13.199-2.464 S1474.404,626.086,1472.758,627.124z"/> </g> </g> <g> <path fill="#E78529" d="M1507.637,576.756c-2.293,0-4.236-1.544-5.523-2.734c-0.818-0.757-1.563-1.742-2.354-2.785 c-1.305-1.74-3.121-4.13-4.32-3.767c-0.748,0.216-1.793,1.673-2.629,2.843c-1.033,1.445-2.1,2.938-3.607,3.978 c-2.707,1.861-5.105,2.573-7.33,2.144c-3.094-0.574-4.775-3.042-6.127-5.021c-1.879-2.758-2.252-2.799-3.258-2.5 c-0.59,0.172-1.49,1.197-2.285,2.103c-1.852,2.098-4.375,4.968-8.797,4.968c-0.051,0-0.096,0-0.15,0 c-3.973-0.053-7.502-3.984-8.49-5.187c-1.145-1.397-3.74-5.019-3.098-8.47l5.953,1.098c-0.057,0.446,0.514,2.041,2.1,3.858 c1.617,1.853,3.158,2.641,3.621,2.649c1.654-0.016,2.666-1.036,4.32-2.913c1.338-1.52,2.85-3.24,5.115-3.907 c5.512-1.641,8.301,2.452,9.965,4.888c0.721,1.06,1.617,2.374,2.238,2.489c0.422,0.073,1.359-0.195,2.793-1.182 c0.631-0.437,1.385-1.488,2.115-2.514c1.457-2.036,3.111-4.343,5.879-5.139c5.207-1.503,8.727,3.151,10.828,5.937 c0.588,0.785,1.203,1.599,1.627,1.989c0.602,0.559,1.01,0.846,1.258,0.993c0.305-0.326,0.736-0.892,1.076-1.335 c0.818-1.068,1.838-2.401,3.258-3.638c3.277-2.843,9.775-3.994,14.561-0.895l-3.285,5.076c-2.217-1.434-5.746-0.972-7.309,0.382 c-0.955,0.834-1.701,1.809-2.418,2.748c-1.291,1.688-2.752,3.605-5.289,3.824 C1507.928,576.75,1507.785,576.756,1507.637,576.756z"/> </g> <g> <g> <rect x="1509.664" y="703.938" fill="#E78529" width="6.053" height="62.612"/> </g> <g> <rect x="1455.363" y="703.938" fill="#E78529" width="6.049" height="62.612"/> </g> </g> </g> </g> <g> <path fill="#6EAAC7" d="M810.18,213.072h356.783c68.838,0,124.643,55.8,124.643,124.635c0,68.843-55.805,124.645-124.643,124.645 h-32.006v119.597l-91.184-119.597H810.18c-68.84,0-124.643-55.802-124.643-124.645C685.537,268.872,741.34,213.072,810.18,213.072 z"/> <g> <path fill="#FFFFFF" d="M1071.344,333.987c0,15.155,12.281,27.438,27.438,27.438c15.152,0,27.434-12.282,27.434-27.438 c0-15.15-12.281-27.436-27.434-27.436C1083.625,306.551,1071.344,318.836,1071.344,333.987z"/> <path fill="#FFFFFF" d="M961.137,333.987c0,15.155,12.281,27.438,27.439,27.438c15.146,0,27.428-12.282,27.428-27.438 c0-15.15-12.281-27.436-27.428-27.436C973.418,306.551,961.137,318.836,961.137,333.987z"/> <path fill="#FFFFFF" d="M850.932,333.987c0,15.155,12.275,27.438,27.434,27.438c15.152,0,27.432-12.282,27.432-27.438 c0-15.15-12.279-27.436-27.432-27.436C863.207,306.551,850.932,318.836,850.932,333.987z"/> </g> </g> <rect x="364.992" y="1249.144" fill="#FFFFFF" width="1906.496" height="53.664"/> <rect x="1120.029" y="1221.692" fill="#6E8CA4" width="709.076" height="27.452"/> <g> <g> <path fill="#6E8CA4" d="M2067.553,1239.175c0-27.291-43.547-49.416-97.26-49.416c-53.717,0-97.264,22.125-97.264,49.416 c0,3.497,0.734,6.907,2.096,10.198h190.332C2066.818,1246.083,2067.553,1242.672,2067.553,1239.175z"/> </g> <ellipse fill="#6E8CA4" cx="1914.563" cy="1208.026" rx="22.869" ry="18.729"/> </g> <g> <g> <path fill="#F26A54" d="M461.484,1144.285c-2.697,7.809-4.16,16.106-4.16,24.708c0,46.134,41.861,83.536,93.496,83.536 s93.496-37.402,93.496-83.536c0-8.602-1.463-16.899-4.156-24.708H461.484z"/> </g> <path fill="#F26A54" d="M644.426,1161.432c16.371,0,29.645,10.881,29.645,24.304c0,13.42-13.273,24.301-29.645,24.301 s-29.645-10.881-29.645-24.301C614.781,1172.313,628.055,1161.432,644.426,1161.432z M644.426,1142.607 c-26.156,0-46.645,18.942-46.645,43.129c0,24.182,20.488,43.126,46.645,43.126s46.645-18.944,46.645-43.126 C691.07,1161.549,670.582,1142.607,644.426,1142.607L644.426,1142.607z"/> </g> <g> <g> <g> <path fill="#6EAAC7" d="M2104.279,804.274c0,8.639-8.145,15.643-18.186,15.643h-281.801c-10.039,0-18.178-7.004-18.178-15.643 V561.873c0-8.639,8.139-15.636,18.178-15.636h281.801c10.041,0,18.186,6.997,18.186,15.636V804.274z"/> </g> <g> <polygon fill="#FFFFFF" points="1991.334,684.729 2066.904,757.016 2066.904,607.122 "/> <polygon fill="#FFFFFF" points="1820.457,612.159 1820.457,764.889 1821.545,764.889 1896.088,684.497 "/> <polygon fill="#FFFFFF" points="2063.877,765.896 2063.877,762.503 1987.105,689.072 1945.516,731.78 1900.463,688.688 1828.875,765.896 "/> <polygon fill="#FFFFFF" points="1984.307,683.255 1941.941,642.729 1902.994,682.723 1945.365,723.248 "/> <polygon fill="#FFFFFF" points="1901.9,681.675 1941.9,640.596 1985.363,682.171 2062.186,603.28 1823.49,603.28 1823.49,606.673 1900.205,680.052 1900.205,680.052 "/> <polygon fill="#FFFFFF" points="1901.9,681.675 1902.994,682.723 1941.941,642.729 1984.307,683.255 1985.363,682.171 1941.9,640.596 "/> <polygon fill="#FFFFFF" points="1902.994,682.723 1902.994,682.723 1945.365,723.248 "/> <rect x="1899.879" y="680.864" transform="matrix(0.7223 0.6915 -0.6915 0.7223 998.7037 -1125.6088)" fill="#FFFFFF" width="2.347" height="0"/> <rect x="1902.447" y="681.442" fill="#FFFFFF" width="0" height="1.515"/> </g> <g> <path fill="#FFCA43" d="M2089.76,753.565c0,20.475-16.605,37.077-37.08,37.077c-20.484,0-37.084-16.603-37.084-37.077 c0-20.479,16.6-37.08,37.084-37.08C2073.154,716.485,2089.76,733.085,2089.76,753.565z"/> </g> <g> <path fill="#FFFFFF" d="M2067.98,764.657h-4.914v8.397h-8.879v-8.397h-17.441v-6.82l16.863-20.899h9.457v21.144h4.914V764.657z M2054.188,758.081V745.04l-10.482,13.041H2054.188z"/> </g> </g> </g> <g> <g> <path fill="#6EAAC7" d="M2093.943,412.162c0,5.57-5.254,10.088-11.729,10.088h-181.762c-6.477,0-11.725-4.518-11.725-10.088 v-156.35c0-5.57,5.248-10.086,11.725-10.086h181.762c6.475,0,11.729,4.516,11.729,10.086V412.162z"/> </g> <polygon fill="#FFFFFF" points="1993.98,264.93 2009.635,313.121 2060.311,313.121 2019.318,342.91 2034.967,391.098 1993.98,361.316 1952.984,391.098 1968.643,342.91 1927.648,313.121 1978.318,313.121 "/> </g> <g> <g> <g> <path fill="#C1D49E" d="M2485.379,885.551c0.641-21.068-5.445-37.143-13.465-52.674c-8.016-15.53-18.881-31.17-26.832-51.479 c-24.285-36.336-17.041-64.07-25.264-103.929c3.617-37.916-11.393-60.129-24.703-78.559 c-12.262-19.817-24.193-37.471-5.758-65.317c14.453-21.828,34.988-42.26,39.309-66.968c8.217-38.925-7.777-64.398,5.18-97.039 c13.438-18.88,31.574-36.326,48.414-53.354c13.393-15.938,26.918-32.065,38.096-46.747c8.59-12.251,16.926-23.575,23.049-32.28 c6.545-8.263,11.117-14.373,11.563-16.954c2.9-0.972,7.859-2.979,13.711-4.803c6.07-1.19,13.322-1.282,20.098,1.319 c7.496,5.696,16.229,18.68,24.904,43.59c7.699,37.666,12.107,75.9,10.016,102.805c-1.398,21.984-21.027,28.78-26.201,43.046 c-5.627,15.493-7.607,35.117-13.854,46.828c-13.879,24.963-31.357,38.943-10.184,60.634 c23.256,21.794,71.596,40.118,82.488,68.756c15.604,38.103-6.586,71.565-34.23,114.873c-5.359,26.048-7.758,52.771-10.627,79.11 c-6.314,25.358-16.527,48.662-29.74,70.473c-15.732,21.791-31.734,48.229-47.545,78.866 c-15.457,30.577-28.664,66.907-42.99,98.943c-14.105,36.458-37.848,55.834-47.586,95.847L2485.379,885.551z"/> <path fill="#99B878" d="M2511.305,1221.46c-6.25-4.601-14.008-9.44-22.045-14.273c-8.563-5.151-16.482-10.37-20.572-15.798 c-4.09-5.483-2.436-11.64,7.859-18.874c7.027-4.823,16.039-11.62,25.352-21.704c10.033-12.156,19.004-28.1,24.316-47.48 c-1.793-10.682-4.592-21.863-7.74-33.349c-3.148-11.48-6.631-23.173-9.719-34.796c-2.672-11.692-4.459-23.467-5.195-35.108 c-0.738-11.642-0.426-23.154,1.1-34.332c3.01-22.855,8.617-43.362,15.383-61.746c6.76-18.387,14.68-34.658,22.305-49.039 c16.305-24.037,28.172-43.275,36.197-59.513c8.121-16.233,13.131-30.513,16.732-44.333c3.848-11.053,7.17-21.619,11.693-32.125 c3.998-10.419,10.75-20.416,20.305-30.644c16.857-15.381,33.766-31.659,37.885-53.635c2.076-11.035,0.303-38.223,4.066-62.977 c3.834-25.834,11.205-47.927,31.129-45.899c27.777,3.81,39.23,24.221,42.182,49.379c2.561,25.011-2.588,53.387-7.041,77.115 c-2.211,11.796-5.055,23.835-8.406,35.601c-3.754,12.182-7.555,24.411-11.154,36.988c-5.809,14.619-9.592,29.97-10.488,46.396 c-0.891,16.417,1.355,33.211,6.344,49.603c5.299,12.853,12.229,24.618,20.424,34.72c8.199,10.106,17.152,19.314,25.434,28.699 c4.605,10.329,7.404,21.434,7.992,34.394c0.584,12.952-1.246,28.188-5.363,45.542c-4.82,18.45-12.031,38.486-22.217,59.926 c-10.824,20.654-20.93,39.875-26.66,55.869c-1.436,12.022-0.699,21.651,0.789,29.54c1.49,7.866,4.119,14.333,6.633,20.133 c3.152,11.931-9.238,22.893-33.109,32.943c-14.979,5.874-31.238,12.061-47.541,18.713 c-15.621,7.269-29.998,14.374-42.484,20.605c-10.42,5.203-19.68,9.468-27.834,12.718c-7.941,3.166-15.166,5.087-21.721,5.758 c-12.795,1.311-24.568,0.818-34.309,0.302L2511.305,1221.46z"/> <path fill="#A8CA83" d="M2535.766,1275.123c-6.555-13.988-13.219-26.505-21.693-37.066 c-9.146-10.483-21.197-20.333-36.947-29.607c-13.414-6.995-30.502-14.587-49.236-22.996 c-9.928-4.589-20.217-9.548-30.389-15.008c-10.174-5.202-20.121-10.75-29.322-16.83c-16.121-11.591-27.4-23.329-34.537-35.32 c-4.418-11.766-3.688-23.844-0.75-36.182c4.936-12.811,10.746-26.355,13.559-41.021c2.357-15.013,0.262-32.264-6.609-52.153 c-5.648-15.655-12.625-29.99-20.879-43.364c-8.504-13.066-18.375-24.391-28.242-34.833 c-19.771-20.854-35.711-39.39-43.203-61.815c-4.563-22.361-5.16-42.356-2.031-62.831c1.406-20.199,6.066-41.925,14.529-68.388 c6.189-18.766,9.385-36.032,11.076-52.303c1.074-16.361,1.145-31.279,1.471-44.755c0.326-13.466,0.84-25.673,1.99-37.443 c1.309-11.159,2.963-21.945,6.705-32.746c10.014,2.755,14.854,17.244,19.891,27.369c4.844,10.028,9.582,21.497,14.762,35.766 c5.314,14.902,11.381,32.769,19.189,52.146c8.672,19.367,19.197,36.644,32.451,47.394c13.816,8.773,30.15,10.883,47.904,10.212 c15.326-1.145,31.33-3.318,46.479-2.826c15.152,0.487,29.125,5.092,40.49,15.826c13.246,17.644,14.938,33.162,11.684,51.899 c-3.264,18.747-11.588,42.122-17.801,76.982c-4.559,31.437-4.813,57.256-1.586,75.989c3.291,18.443,8.48,32.894,11.748,47.122 c2.992,13.048,6.41,24.635,10.598,36.759c4.195,12.119,8.387,25.544,13.994,41.156c5.662,16.675,6.605,28.495,5.764,40.109 c-0.836,11.582-3.244,22.922-4.32,37.856c-1.176,12.777-0.496,23.642,1.057,32.953c1.549,9.284,3.912,17.235,6.223,24.474 c3.539,13.211,6.836,25.822,5.576,40.147c-0.791,9.891-5.42,21.778-4.854,34.647L2535.766,1275.123z"/> </g> <g> <path fill="#FCB442" d="M2669.971,1282.161h-79.734c18.66,75.668-4.443,176.262-39.668,248.727 c-28.963,59.579-62.398,98.432-109.025,132.6c25.352,10.636,53.889,14.856,83.707,14.856 c98.945,0,174.385-45.937,174.385-221.23C2699.635,1392.45,2688.715,1332.321,2669.971,1282.161z"/> <path fill="#FFCA43" d="M2550.568,1530.887c35.225-72.465,58.328-173.059,39.668-248.727h-219.26 c-18.736,50.16-29.662,110.289-29.662,174.952c0,122.452,41.498,181.733,100.229,206.374 C2488.17,1629.319,2521.605,1590.466,2550.568,1530.887z"/> </g> </g> <g> <polygon fill="#FFCA43" points="2699.635,1663.487 2347.686,1663.487 2347.686,1943.564 2399.568,1943.564 2399.568,1707.757 2653.262,1707.757 2653.262,1943.564 2699.635,1943.564 "/> </g> </g> <polygon fill="#A93B4B" points="2347.686,1663.487 2699.635,1705.593 2699.635,1663.487 "/> <g> <g> <g> <path fill="#6F7173" d="M1203.652,1938.431h-51.047h-51.043c-74.537,11.606-136.693,48.11-170.01,97.247h221.053h221.051 C1340.34,1986.542,1278.184,1950.038,1203.652,1938.431z"/> <g> <path fill="#6F7173" d="M1487.828,1561.422c14.445-58.603,22.451-121.935,22.451-188.135 c0-298.259-160.137-540.043-357.674-540.043c-197.539,0-357.676,241.784-357.676,540.043c0,66.2,8.006,129.532,22.451,188.135 h335.225H1487.828z"/> <polygon fill="#515254" points="1152.605,1561.422 817.381,1561.422 817.307,1561.422 817.307,1575.656 819.15,1575.656 1152.605,1575.656 1486.059,1575.656 1487.902,1575.656 1487.902,1561.422 1487.828,1561.422 "/> </g> </g> <g> <path fill="#6F7173" d="M1115.455,1938.258c-0.242,0.051-0.482,0.119-0.73,0.173h37.881h37.879 c-0.248-0.054-0.486-0.122-0.73-0.173c1.186-30.685,2.299-93.47,3.332-126.988l-82.318-46.415 C1112.164,1815.296,1113.729,1893.668,1115.455,1938.258z"/> <path fill="#515254" d="M1443.436,1699.196c0.828,0,1.643-0.086,2.455-0.219h-293.285H859.318 c0.814,0.133,1.627,0.219,2.455,0.219h247.313c0.527,22.375,1.094,44.231,1.682,65.659l82.318,46.415 c1.107-35.886,2.123-73.278,3.037-112.074H1443.436z"/> </g> <path fill="#5A5B5D" d="M1409.123,1561.422c11.059-50.551,17.18-105.183,17.18-162.292 c0-257.281-122.537-465.851-273.697-465.851c-151.162,0-273.703,208.569-273.703,465.851c0,57.109,6.127,111.741,17.184,162.292 h256.52H1409.123z"/> </g> <g> <path fill="#6F7173" d="M859.318,1698.977h293.287h293.285c2.551-0.421,5.037-1.521,7.449-3.185 c-109.512-55.428-346.943-96.536-633.932-106.684C821.637,1648.683,838.471,1695.543,859.318,1698.977z"/> <path fill="#5A5B5D" d="M1486.059,1575.656h-333.453H819.15c0,4.551,0.092,9.034,0.258,13.453 c286.988,10.147,524.42,51.256,633.932,106.684C1472.102,1682.847,1486.059,1634,1486.059,1575.656z"/> </g> </g> <g> <g> <path fill="#6EAAC7" d="M833.939,766.861c0,5.572-5.252,10.088-11.729,10.088h-181.76c-6.477,0-11.725-4.516-11.725-10.088 V610.513c0-5.57,5.248-10.086,11.725-10.086h181.76c6.477,0,11.729,4.516,11.729,10.086V766.861z"/> </g> <g> <g> <path fill="#FFFFFF" d="M707.133,691.772c0,11.168-9.059,20.223-20.227,20.223c-11.172,0-20.227-9.055-20.227-20.223 c0-11.173,9.055-20.227,20.227-20.227C698.074,671.545,707.133,680.599,707.133,691.772z"/> </g> <g> <path fill="#FFFFFF" d="M780.471,645.158c0,11.168-9.059,20.225-20.227,20.225c-11.174,0-20.227-9.057-20.227-20.225 c0-11.173,9.053-20.227,20.227-20.227C771.412,624.931,780.471,633.985,780.471,645.158z"/> </g> <g> <path fill="#FFFFFF" d="M780.471,732.221c0,11.168-9.059,20.222-20.227,20.222c-11.174,0-20.227-9.054-20.227-20.222 c0-11.173,9.053-20.227,20.227-20.227C771.412,711.995,780.471,721.048,780.471,732.221z"/> </g> <g> <polygon fill="#FFFFFF" points="757.969,736.339 677.682,692.057 757.721,641.184 762.768,649.126 696.131,691.483 762.52,728.098 "/> </g> </g> </g> <g> <g> <path fill="#FFFFFF" d="M551.455,1128.599c0-27.36,0.156-54.757,1.566-81.797c0.652-12.632-7.693-14.043-18.824-16.818 c-16.9-4.21-34.773-6.178-51.844-9.785c35.555-15.633,79.088-1.659,116.182-3.001c-15.143,0.455-43.52-1.092-55.965,8.744 c23.232,5.705,47.633,3.789,71.109,7.532c-8.199,4.222-24.139,2.719-33.479,3.174c-9.514,0.464-19.072,0.51-28.512,1.887 c-1.701,14.04-0.994,29.717-1.021,43.962c-0.014,7.021,4.762,34.493-0.785,38.257L551.455,1128.599z"/> <path fill="#FFFFFF" d="M549.883,1126.246c5.611-14.592,6.273-29.322,10.023-44.194c1.623-6.435,4.26-13.055,5.488-19.556 c1.172-6.191,1.258-12.975,0.959-19.396c-0.547-11.688-6.053-7.445-14.955-11.761c-5.904,11.407-1.516,36.685-1.516,49.958 c0,14.741,2.354,28.224,2.354,42.596L549.883,1126.246z"/> </g> <path fill="#FFFFFF" d="M567.922,1004.669c0.059-4.789-31.143-8.408-36.988-14.887c4.697-4.932,15.254-7.358,21.996-9.566 c-4.395-11.91-21.297-2.544-11.352-18.887c4.613-7.584,7.9-14.004,5.285-23.288c2.758,2.809,5.203,6.805,8.115,9.896 c-2.385,3.144-7.109,5.175-6.719,9.67c0.295,3.458,6.08,8.746,7.896,11.844c6.871,11.749,0.639,11.287-10.947,15.723 c4.334,5.175,11.342,9.336,17.156,13.181c-2.096,4.1-10.336,5.577-14.055,2.39L567.922,1004.669z"/> </g> <g> <polygon fill="#004052" points="2140.146,1249.109 2112.961,1249.109 2109.123,1208.284 2143.979,1208.284 "/> <ellipse fill="#004052" cx="2126.551" cy="1146.16" rx="8.926" ry="89.94"/> </g> <g> <g> <g> <path fill="#6EAAC7" d="M1702.322,278.022c0,5.57-5.254,10.088-11.729,10.088h-181.762c-6.475,0-11.725-4.518-11.725-10.088 v-156.35c0-5.57,5.25-10.086,11.725-10.086h181.762c6.475,0,11.729,4.516,11.729,10.086V278.022z"/> </g> </g> <g> <path fill="#FFFFFF" d="M1641.531,212.224c0,7.811-3.281,14.512-9.844,20.114c-6.572,5.586-15.283,8.755-26.143,9.495v25.174 h-12.061V242.25c-5.184-0.049-11.168-0.672-17.965-1.869c-6.797-1.204-12.109-2.706-15.943-4.513v-20.25h3.121 c4.242,2.316,9.131,4.169,14.656,5.548c5.533,1.393,11.012,2.293,16.467,2.711v-18.999l-6.719-1.531 c-4.252-0.97-8.172-2.098-11.752-3.396c-3.58-1.29-6.678-3.002-9.256-5.13c-2.598-2.123-4.605-4.752-6.039-7.868 c-1.434-3.12-2.146-6.972-2.146-11.547c0-6.887,3.139-12.786,9.436-17.688c6.277-4.891,15-7.854,26.141-8.875v-16.154h12.061 v16.017c4.26,0.193,9.232,0.783,14.938,1.802c5.707,1.018,10.203,2.201,13.498,3.543v19.965h-3.061 c-3.277-1.894-7.102-3.465-11.432-4.711c-4.342-1.245-9.008-2.04-13.943-2.359v17.611l5.553,1.114 c10.432,2.031,18.125,5.111,23.053,9.252C1639.068,199.063,1641.531,204.832,1641.531,212.224z M1594.584,183.033v-16.088 c-3.039,0.229-5.787,1.004-8.213,2.323c-2.436,1.312-3.641,3.18-3.641,5.581c0,2.174,0.781,3.863,2.357,5.063 C1586.66,181.112,1589.822,182.153,1594.584,183.033z M1616.369,214.928c0-2.679-1.256-4.686-3.715-5.997 c-2.494-1.314-4.936-2.16-7.377-2.535v17.205c3.043-0.416,5.645-1.31,7.818-2.675 C1615.27,219.566,1616.369,217.562,1616.369,214.928z"/> </g> </g> <g> <g> <path fill="#232E46" d="M2493.146,1968.502l-1.484,0.512c-20.916,12.768-8.471,20.753,1.674,24.561l0.33-0.374h-0.52V1968.502z"/> <path fill="#6278A1" d="M2792.697,1913.539l-70.818,79.662h-228.213l-0.33,0.374c-10.145-3.808-22.59-11.793-1.674-24.561 l1.484-0.512h11.643l77.047-84.679h-18.738l-87.107,83.47c-0.303,0.188-0.557,0.326-0.863,0.521 c-0.199,0.126-0.391,0.246-0.58,0.377c-5.781,3.764-8.861,7.16-10.143,10.2l-0.047,0.046l0.033-0.011 c-5.014,12.021,18.566,18.313,18.566,18.313l6.381,1.429h242.348l73.762-84.68h-13.301 C2792.467,1913.521,2792.697,1913.539,2792.697,1913.539z"/> <path fill="#DCE6EB" d="M2731.686,1968.502h-9.807c0,0-37.793,11.513,0,24.698l70.818-79.662c0,0-0.23-0.018-0.551-0.05 c-1.463-0.149-5.709-0.761-7.611-3.02c-0.295-0.71-0.418-1.402-0.482-2.085L2731.686,1968.502z"/> <path fill="#FFFFFF" d="M2721.879,1968.502h-217.09h-11.643v24.698h0.52h228.213 C2684.086,1980.015,2721.879,1968.502,2721.879,1968.502z"/> <polygon fill="#7E9ACF" points="2504.789,1968.502 2721.879,1968.502 2731.686,1968.502 2784.053,1908.384 2805.447,1883.824 2581.836,1883.824 "/> </g> <g> <path fill="#232E46" d="M2440.418,1929.042l-1.443,0.498c-20.957,12.777-8.508,20.767,1.641,24.577l0.33-0.379h-0.527V1929.042z"/> <path fill="#6278A1" d="M2739.977,1874.083l-70.818,79.655h-228.213l-0.33,0.379c-10.148-3.811-22.598-11.8-1.641-24.577 l1.443-0.498h11.646l77.045-84.681h-18.732l-87.115,83.474c-0.299,0.187-0.547,0.322-0.852,0.515 c-0.201,0.131-0.395,0.256-0.584,0.38c-5.781,3.762-8.859,7.16-10.143,10.2l-0.051,0.049l0.037-0.012 c-5.02,12.022,18.563,18.313,18.563,18.313l6.385,1.429h242.35l73.756-84.68h-13.334 C2739.729,1874.062,2739.977,1874.083,2739.977,1874.083z"/> <path fill="#DCE6EB" d="M2678.967,1929.042h-9.809c0,0-37.797,11.513,0,24.696l70.818-79.655c0,0-0.248-0.021-0.588-0.055 c-1.502-0.156-5.689-0.779-7.568-3.02c-0.295-0.713-0.424-1.404-0.488-2.092L2678.967,1929.042z"/> <path fill="#FFFFFF" d="M2669.158,1929.042h-217.094h-11.646v24.696h0.527h228.213 C2631.361,1940.554,2669.158,1929.042,2669.158,1929.042z"/> <polygon fill="#7E9ACF" points="2452.064,1929.042 2669.158,1929.042 2678.967,1929.042 2731.332,1868.917 2752.723,1844.361 2529.109,1844.361 "/> </g> <g> <path fill="#232E46" d="M2505.984,1884.162l-1.471,0.508c-20.926,12.772-8.484,20.76,1.662,24.567l0.332-0.377h-0.523V1884.162z"/> <path fill="#6278A1" d="M2805.539,1829.204l-70.82,79.656h-228.211l-0.332,0.377c-10.146-3.808-22.588-11.795-1.662-24.567 l1.471-0.508h11.641l77.047-84.678h-18.738l-87.129,83.492c-0.291,0.182-0.533,0.311-0.828,0.498 c-0.203,0.127-0.395,0.253-0.598,0.38c-5.777,3.762-8.852,7.158-10.135,10.196l-0.049,0.048l0.035-0.012 c-5.018,12.023,18.568,18.313,18.568,18.313l6.379,1.43h242.354l73.752-84.676h-13.297 C2805.309,1829.185,2805.539,1829.204,2805.539,1829.204z"/> <path fill="#DCE6EB" d="M2744.531,1884.162h-9.813c0,0-37.797,11.513,0,24.698l70.82-79.656c0,0-0.23-0.019-0.553-0.051 c-1.461-0.149-5.707-0.761-7.609-3.024c-0.295-0.71-0.42-1.401-0.484-2.086L2744.531,1884.162z"/> <path fill="#FFFFFF" d="M2734.719,1884.162h-217.094h-11.641v24.698h0.523h228.211 C2696.922,1895.674,2734.719,1884.162,2734.719,1884.162z"/> <polygon fill="#7E9ACF" points="2517.625,1884.162 2734.719,1884.162 2744.531,1884.162 2796.893,1824.042 2818.283,1799.484 2594.672,1799.484 "/> </g> </g> </g> </svg>